<?xml version="1.0" encoding="utf-8"?>
<!-- Generator: Adobe Illustrator 16.0.0, SVG Export Plug-In . SVG Version: 6.00 Build 0)  -->
<!DOCTYPE svg PUBLIC "-//W3C//DTD SVG 1.1//EN" "http://www.w3.org/Graphics/SVG/1.1/DTD/svg11.dtd">
<svg version="1.1" id="Layer_1" xmlns="http://www.w3.org/2000/svg" xmlns:xlink="http://www.w3.org/1999/xlink" x="0px" y="0px"
	 width="612px" height="792px" viewBox="0 0 612 792" enable-background="new 0 0 612 792" xml:space="preserve">
<g>
	<g>
		<path fill-rule="evenodd" clip-rule="evenodd" fill="#FFFFFF" d="M257,447.963c0-33.757,0-67.21,0-100.813
			c33.662,0,67.324,0,100.987,0c0,33.547,0,67.168,0,100.813C324.383,447.963,290.778,447.963,257,447.963z M307.136,431.021
			c0,0.016,0,0.031,0,0.046c4.658,0,9.317,0.001,13.976,0c0.332,0,0.665,0.002,0.998-0.014c6.179-0.284,8.75-2.69,9.015-8.914
			c0.211-4.982,0.077-9.98,0.091-14.972c0.022-8.638,0.033-8.484,8.783-9.223c2.004-0.169,3.885-1.79,5.822-2.743
			c-1.033-1.752-1.69-3.951-3.159-5.187c-9.672-8.14-19.491-16.104-29.317-24.06c-5.253-4.251-7.471-4.201-12.713,0.066
			c-8.643,7.034-17.365,13.979-25.822,21.231c-2.582,2.214-4.402,5.316-6.571,8.011c3.345,0.942,6.658,2.493,10.042,2.665
			c3.781,0.191,4.896,1.547,4.805,5.087c-0.159,6.15-0.144,12.313,0.05,18.464c0.214,6.763,2.767,9.279,9.53,9.509
			C297.482,431.152,302.312,431.021,307.136,431.021z"/>
		<path fill-rule="evenodd" clip-rule="evenodd" d="M307.136,431.021c-4.824,0-9.653,0.132-14.472-0.032
			c-6.763-0.229-9.316-2.746-9.53-9.509c-0.194-6.15-0.209-12.313-0.05-18.464c0.092-3.54-1.024-4.896-4.805-5.087
			c-3.383-0.172-6.697-1.723-10.042-2.665c2.169-2.695,3.99-5.797,6.571-8.011c8.457-7.253,17.18-14.197,25.822-21.231
			c5.242-4.267,7.46-4.318,12.713-0.066c9.826,7.955,19.646,15.92,29.317,24.06c1.469,1.236,2.126,3.434,3.159,5.187
			c-1.938,0.953-3.818,2.574-5.822,2.743c-8.75,0.738-8.761,0.585-8.783,9.223c-0.014,4.991,0.12,9.989-0.091,14.972
			c-0.265,6.224-2.836,8.63-9.015,8.914c-0.333,0.016-0.666,0.014-0.998,0.014c-4.658,0.001-9.317,0-13.976,0
			C307.136,431.052,307.136,431.036,307.136,431.021z M306.889,423.676c3.408-1.004,6.873-1.621,9.913-3.107
			c1.299-0.636,1.712-3.083,2.528-4.707c-1.611-0.466-3.541-1.742-4.777-1.255c-4.93,1.943-9.576,1.904-14.521,0.069
			c-1.131-0.42-2.992,1.132-4.517,1.775c0.746,1.479,1.124,3.688,2.313,4.285C300.561,422.109,303.689,422.698,306.889,423.676z
			 M300.855,399.954c-2.832-2.163-4.621-4.487-5.813-4.212c-1.753,0.402-3.567,2.449-4.337,4.235c-0.293,0.68,2.25,3.672,3.47,3.654
			C295.956,403.604,297.709,401.81,300.855,399.954z M319.75,405.729c1.98-2.735,4.058-4.347,3.979-5.848
			c-0.079-1.527-2.278-2.945-3.549-4.411c-1.54,1.44-3.883,2.666-4.344,4.393C315.517,401.062,317.79,402.951,319.75,405.729z"/>
		<path fill-rule="evenodd" clip-rule="evenodd" fill="#FFFFFF" d="M306.889,423.676c-3.199-0.978-6.328-1.566-9.062-2.939
			c-1.189-0.597-1.566-2.807-2.313-4.285c1.525-0.644,3.386-2.195,4.517-1.775c4.945,1.835,9.591,1.874,14.521-0.069
			c1.236-0.487,3.166,0.789,4.777,1.255c-0.816,1.624-1.229,4.071-2.528,4.707C313.762,422.055,310.297,422.672,306.889,423.676z"/>
		<path fill-rule="evenodd" clip-rule="evenodd" fill="#FFFFFF" d="M300.855,399.954c-3.146,1.855-4.9,3.649-6.681,3.677
			c-1.22,0.018-3.763-2.975-3.47-3.654c0.77-1.786,2.584-3.833,4.337-4.235C296.234,395.467,298.023,397.791,300.855,399.954z"/>
		<path fill-rule="evenodd" clip-rule="evenodd" fill="#FFFFFF" d="M319.75,405.729c-1.96-2.777-4.233-4.667-3.913-5.865
			c0.461-1.728,2.804-2.953,4.344-4.393c1.271,1.465,3.47,2.883,3.549,4.411C323.808,401.382,321.73,402.993,319.75,405.729z"/>
	</g>
</g>
</svg>
